<mxfile host="app.diagrams.net" modified="2023-10-10T02:20:34.969Z" agent="Mozilla/5.0 (X11; Ubuntu; Linux x86_64; rv:109.0) Gecko/20100101 Firefox/115.0" version="22.0.4" etag="_VyHuXgeFkCQAV9yL867" type="github">
  <diagram name="Page-1" id="6LjjSb6BbtP3QICzOnJa">
    <mxGraphModel>
      <root>
        <mxCell id="0" />
        <mxCell id="1" parent="0" />
      </root>
    </mxGraphModel>
  </diagram>
</mxfile>
